<?xml version="1.0" encoding="UTF-8" standalone="no"?>
<!DOCTYPE svg PUBLIC "-//W3C//DTD SVG 1.1//EN" "http://www.w3.org/Graphics/SVG/1.1/DTD/svg11.dtd">
<svg xmlns="http://www.w3.org/2000/svg" xmlns:xlink="http://www.w3.org/1999/xlink" xmlns:serif="http://www.serif.com/"
     width="100%" height="100%" viewBox="0 0 2048 2048" version="1.1" xml:space="preserve"
     style="fill-rule:evenodd;clip-rule:evenodd;stroke-linecap:round;stroke-miterlimit:7.92683;">
    <style>
      @keyframes spin {
        from {
          transform: rotate(0deg) translateX(50px) translateY(50px);
        }

        12.5% {
          transform: rotate(30deg) translateX(50px) translateY(50px);
        }

        25% {
          transform: rotate(60deg) translateX(50px) translateY(50px);
        }

        37.5% {
          transform: rotate(90deg) translateX(50px) translateY(50px);
        }

        50% {
          transform: rotate(180deg) translateX(50px) translateY(50px);
        }

        62.5% {
          transform: rotate(210deg) translateX(50px) translateY(50px);
        }

        75% {
          transform: rotate(240deg) translateX(50px) translateY(50px);
        }

        86.5% {
          transform: rotate(270deg) translateX(50px) translateY(50px);
        }

        to {
          transform: rotate(360deg) translateX(50px) translateY(50px);
        }
      }

      svg {
        width: 300px;
        margin: auto;
      }

      #Clock-hands {
        transform: translateX(10px);
        animation: spin 2s cubic-bezier(.4,2.08,.55,.44) infinite;
        transform-origin: center center;
      }
    </style>
  <g id="Flat">
        <g id="Thyme-clock" serif:id="Thyme clock">
            <g id="Clock-hands" serif:id="Clock hands"
               transform="matrix(0.99999,-0.0043895,0.0043895,0.99999,132.032,191.915)">
                <g id="Thyme-hours" serif:id="Thyme hours">
                    <g id="Trunk" transform="matrix(1,0,0,1,70.3628,-67.5073)">
                        <path d="M818.047,1134.36C970.086,929.456 1028.79,869.547 1232.81,696.652"
                              style="fill:none;stroke:white;stroke-width:50.96px;"/>
                    </g>
                  <g id="Leaf" transform="matrix(0.634613,0.77283,-0.77283,0.634613,1901.65,-855.523)">
                        <path
                          d="M769.193,1204.44C769.193,1204.44 714.326,1264.52 714.326,1308.34C714.326,1352.16 769.193,1412.24 769.193,1412.24C769.193,1412.24 824.059,1352.16 824.059,1308.34C824.059,1264.52 769.193,1204.44 769.193,1204.44Z"
                          style="fill:none;stroke:white;stroke-width:47.19px;"/>
                    </g>
                  <g id="Leaf1" serif:id="Leaf"
                     transform="matrix(-0.740475,0.672084,-0.672084,-0.740475,2816.77,1176.24)">
                        <path
                          d="M769.193,1204.44C769.193,1204.44 714.326,1264.52 714.326,1308.34C714.326,1352.16 769.193,1412.24 769.193,1412.24C769.193,1412.24 824.059,1352.16 824.059,1308.34C824.059,1264.52 769.193,1204.44 769.193,1204.44Z"
                          style="fill:none;stroke:white;stroke-width:47.19px;"/>
                    </g>
                  <g id="Leaf2" serif:id="Leaf"
                     transform="matrix(-0.705068,0.639947,-0.591107,-0.651258,2539.88,1209.58)">
                        <path
                          d="M769.193,1204.44C769.193,1204.44 714.326,1264.52 714.326,1308.34C714.326,1352.16 769.193,1412.24 769.193,1412.24C769.193,1412.24 824.059,1352.16 824.059,1308.34C824.059,1264.52 769.193,1204.44 769.193,1204.44Z"
                          style="fill:none;stroke:white;stroke-width:51.48px;"/>
                    </g>
                  <g id="Leaf3" serif:id="Leaf"
                     transform="matrix(-0.740475,0.672084,-0.672084,-0.740475,2663.84,1009.75)">
                        <path
                          d="M769.193,1204.44C769.193,1204.44 714.326,1264.52 714.326,1308.34C714.326,1352.16 769.193,1412.24 769.193,1412.24C769.193,1412.24 824.059,1352.16 824.059,1308.34C824.059,1264.52 769.193,1204.44 769.193,1204.44Z"
                          style="fill:none;stroke:white;stroke-width:47.19px;"/>
                    </g>
                </g>
                <g id="Thyme-minutes" serif:id="Thyme minutes">
                    <path id="Trunk1" serif:id="Trunk"
                          d="M513.951,332.501C705.009,592.975 738.556,628.176 904.796,915.842"
                          style="fill:none;stroke:white;stroke-width:35.57px;"/>
                <g id="Leaf4" serif:id="Leaf"
                   transform="matrix(0.811248,-0.520625,0.540103,0.841599,-872.763,-455.604)">
                        <path
                          d="M769.193,1204.44C769.193,1204.44 714.326,1264.52 714.326,1308.34C714.326,1352.16 769.193,1412.24 769.193,1412.24C769.193,1412.24 824.059,1352.16 824.059,1308.34C824.059,1264.52 769.193,1204.44 769.193,1204.44Z"
                          style="fill:none;stroke:white;stroke-width:36.22px;"/>
                    </g>
                <g id="Leaf5" serif:id="Leaf" transform="matrix(0.581092,0.813838,-0.813838,0.581092,1227.54,-1104.9)">
                        <path
                          d="M769.193,1204.44C769.193,1204.44 714.326,1264.52 714.326,1308.34C714.326,1352.16 769.193,1412.24 769.193,1412.24C769.193,1412.24 824.059,1352.16 824.059,1308.34C824.059,1264.52 769.193,1204.44 769.193,1204.44Z"
                          style="fill:none;stroke:white;stroke-width:35.57px;"/>
                    </g>
                <g id="Leaf6" serif:id="Leaf" transform="matrix(0.547928,0.767389,-0.68945,0.492277,1201.96,-795.762)">
                        <path
                          d="M769.193,1204.44C769.193,1204.44 714.326,1264.52 714.326,1308.34C714.326,1352.16 769.193,1412.24 769.193,1412.24C769.193,1412.24 824.059,1352.16 824.059,1308.34C824.059,1264.52 769.193,1204.44 769.193,1204.44Z"
                          style="fill:none;stroke:white;stroke-width:39.68px;"/>
                    </g>
                <g id="Leaf7" serif:id="Leaf" transform="matrix(0.553449,0.775122,-0.733954,0.524054,1139.74,-636.772)">
                        <path
                          d="M769.193,1204.44C769.193,1204.44 714.326,1264.52 714.326,1308.34C714.326,1352.16 769.193,1412.24 769.193,1412.24C769.193,1412.24 824.059,1352.16 824.059,1308.34C824.059,1264.52 769.193,1204.44 769.193,1204.44Z"
                          style="fill:none;stroke:white;stroke-width:38.35px;"/>
                    </g>
                <g id="Leaf8" serif:id="Leaf" transform="matrix(0.581092,0.813838,-0.813838,0.581092,1054.44,-985.467)">
                        <path
                          d="M769.193,1204.44C769.193,1204.44 714.326,1264.52 714.326,1308.34C714.326,1352.16 769.193,1412.24 769.193,1412.24C769.193,1412.24 824.059,1352.16 824.059,1308.34C824.059,1264.52 769.193,1204.44 769.193,1204.44Z"
                          style="fill:none;stroke:white;stroke-width:35.57px;"/>
                    </g>
                </g>
            </g>
          <g id="Bezel">
                <g id="Bezel-outline" serif:id="Bezel outline" transform="matrix(1.08313,0,0,1.0838,-218.422,-153.584)">
                    <path
                      d="M1147.07,247.741C1610.01,247.741 1985.87,623.592 1985.87,1086.54C1985.87,1549.48 1610.01,1925.33 1147.07,1925.33C684.127,1925.33 308.276,1549.48 308.276,1086.54C308.276,623.592 684.127,247.741 1147.07,247.741ZM1147.07,285.248C1589.31,285.248 1948.34,644.3 1948.34,1086.54C1948.34,1528.77 1589.31,1887.82 1147.07,1887.82C704.834,1887.82 345.806,1528.77 345.806,1086.54C345.806,644.3 704.834,285.248 1147.07,285.248Z"
                      style="fill:white;"/>
                </g>
            <g id="Bezel-divisions" serif:id="Bezel divisions">
                    <g id="Main-divisions" serif:id="Main divisions">
                        <g id="Division-group" serif:id="Division group" transform="matrix(1,0,0,1,12.3198,0)">
                            <g id="Division-strong" serif:id="Division strong"
                               transform="matrix(0.969505,0,0,0.491294,-23.3418,502.378)">
                                <path
                                  d="M393.315,1061.73C393.315,1040.91 384.748,1024 374.195,1024L261.748,1024C251.195,1024 242.628,1040.91 242.628,1061.73C242.628,1082.56 251.195,1099.46 261.748,1099.46L374.195,1099.46C384.748,1099.46 393.315,1082.56 393.315,1061.73Z"
                                  style="fill:white;stroke:white;stroke-width:24.24px;"/>
                            </g>
                          <g id="Division-strong1" serif:id="Division strong"
                             transform="matrix(0.969505,0,0,0.491294,1430.15,502.378)">
                                <path
                                  d="M393.315,1061.73C393.315,1040.91 384.748,1024 374.195,1024L261.748,1024C251.195,1024 242.628,1040.91 242.628,1061.73C242.628,1082.56 251.195,1099.46 261.748,1099.46L374.195,1099.46C384.748,1099.46 393.315,1082.56 393.315,1061.73Z"
                                  style="fill:white;stroke:white;stroke-width:24.24px;"/>
                            </g>
                        </g>
                      <g id="Division-group1" serif:id="Division group"
                         transform="matrix(6.12323e-17,-1,1,6.12323e-17,7.54368e-16,2035.68)">
                            <g id="Division-strong2" serif:id="Division strong"
                               transform="matrix(0.969505,0,0,0.491294,-23.3418,502.378)">
                                <path
                                  d="M393.315,1061.73C393.315,1040.91 384.748,1024 374.195,1024L261.748,1024C251.195,1024 242.628,1040.91 242.628,1061.73C242.628,1082.56 251.195,1099.46 261.748,1099.46L374.195,1099.46C384.748,1099.46 393.315,1082.56 393.315,1061.73Z"
                                  style="fill:white;stroke:white;stroke-width:24.24px;"/>
                            </g>
                        <g id="Division-strong3" serif:id="Division strong"
                           transform="matrix(0.969505,0,0,0.491294,1430.15,502.378)">
                                <path
                                  d="M393.315,1061.73C393.315,1040.91 384.748,1024 374.195,1024L261.748,1024C251.195,1024 242.628,1040.91 242.628,1061.73C242.628,1082.56 251.195,1099.46 261.748,1099.46L374.195,1099.46C384.748,1099.46 393.315,1082.56 393.315,1061.73Z"
                                  style="fill:white;stroke:white;stroke-width:24.24px;"/>
                            </g>
                        </g>
                    </g>
                </g>
            </g>
        </g>
    </g>
</svg>
